<?xml version="1.0" encoding="utf-8"?>
<!-- Generator: Adobe Illustrator 15.0.0, SVG Export Plug-In . SVG Version: 6.00 Build 0)  -->
<!DOCTYPE svg PUBLIC "-//W3C//DTD SVG 1.1//EN" "http://www.w3.org/Graphics/SVG/1.1/DTD/svg11.dtd">
<svg version="1.1" id="Laag_1" xmlns="http://www.w3.org/2000/svg" xmlns:xlink="http://www.w3.org/1999/xlink" x="0px" y="0px"
	 width="284px" height="163px" viewBox="22.627 21.474 284 163" enable-background="new 22.627 21.474 284 163"
	 xml:space="preserve">
<polygon fill="#464545" points="26.642,107.298 35.907,107.298 35.907,140.683 52.676,122.765 63.932,122.765 47.852,139.228 
	64.468,163.193 53.595,163.193 41.649,145.659 35.907,151.632 35.907,163.193 26.642,163.193 "/>
<rect x="69.675" y="122.765" fill="#464545" width="9.266" height="40.43"/>
<g>
	<g>
		<defs>
			<rect id="SVGID_1_" x="0" y="0" width="330.254" height="225.949"/>
		</defs>
		<clipPath id="SVGID_2_">
			<use xlink:href="#SVGID_1_"  overflow="visible"/>
		</clipPath>
		<path clip-path="url(#SVGID_2_)" fill="#464545" d="M126.604,143.21v-0.153c0-11.563,9.188-21.134,21.593-21.134
			c12.404,0,21.516,9.418,21.516,20.98v0.152c0,11.485-9.188,21.057-21.668,21.057C135.715,164.112,126.604,154.694,126.604,143.21
			 M160.447,143.21v-0.153c0-7.121-5.13-13.017-12.404-13.017c-7.428,0-12.175,5.818-12.175,12.863v0.152
			c0,7.045,5.13,12.94,12.328,12.94C155.699,155.997,160.447,150.177,160.447,143.21"/>
	</g>
	<g>
		<defs>
			<rect id="SVGID_3_" x="0" y="0" width="330.254" height="225.949"/>
		</defs>
		<clipPath id="SVGID_4_">
			<use xlink:href="#SVGID_3_"  overflow="visible"/>
		</clipPath>
		<path clip-path="url(#SVGID_4_)" fill="#464545" d="M177.348,107.298h9.265v21.671c2.604-3.753,6.354-7.046,12.635-7.046
			c9.111,0,14.396,6.125,14.396,15.468v25.804h-9.266v-22.97c0-6.28-3.14-9.879-8.651-9.879c-5.36,0-9.112,3.752-9.112,10.03v22.817
			h-9.265L177.348,107.298L177.348,107.298z"/>
	</g>
	<g>
		<defs>
			<rect id="SVGID_5_" x="0" y="0" width="330.254" height="225.949"/>
		</defs>
		<clipPath id="SVGID_6_">
			<use xlink:href="#SVGID_5_"  overflow="visible"/>
		</clipPath>
		<path clip-path="url(#SVGID_6_)" fill="#464545" d="M79.808,113.005c0,3.029-2.455,5.482-5.48,5.482
			c-3.029,0-5.485-2.453-5.485-5.482c0-3.024,2.456-5.479,5.485-5.479C77.353,107.525,79.808,109.98,79.808,113.005"/>
	</g>
	<g>
		<defs>
			<rect id="SVGID_7_" x="0" y="0" width="330.254" height="225.949"/>
		</defs>
		<clipPath id="SVGID_8_">
			<use xlink:href="#SVGID_7_"  overflow="visible"/>
		</clipPath>
		<path clip-path="url(#SVGID_8_)" fill="#464545" d="M115.263,122.709h9.66l-14.707,41.646
			c-4.117,10.211-10.784,18.211-27.033,14.321v-7.441c9.506,1.971,15.544,0.333,18.442-7.953l-15.755-40.573h9.97l10.147,29.008
			L115.263,122.709z"/>
	</g>
	<g>
		<defs>
			<rect id="SVGID_9_" x="0" y="0" width="330.254" height="225.949"/>
		</defs>
		<clipPath id="SVGID_10_">
			<use xlink:href="#SVGID_9_"  overflow="visible"/>
		</clipPath>
		<path clip-path="url(#SVGID_10_)" fill="#FFCA12" d="M242.134,46.703l-7.562-14.483c-12.605,6.593-21.871,18.729-24.525,33.213
			l16.498,3.042C228.022,59.004,233.956,51.01,242.134,46.703"/>
	</g>
	<g>
		<defs>
			<rect id="SVGID_11_" x="0" y="0" width="330.254" height="225.949"/>
		</defs>
		<clipPath id="SVGID_12_">
			<use xlink:href="#SVGID_11_"  overflow="visible"/>
		</clipPath>
		<path clip-path="url(#SVGID_12_)" fill="#DC892A" d="M226.186,73.107c0-1.576,0.123-3.123,0.358-4.633l-16.498-3.043
			c-0.476,2.596-0.74,5.266-0.772,7.991c-0.044,3.817,0.368,7.53,1.183,11.093l16.701-3.836
			C226.523,78.261,226.186,75.725,226.186,73.107"/>
	</g>
	<g>
		<defs>
			<rect id="SVGID_13_" x="0" y="0" width="330.254" height="225.949"/>
		</defs>
		<clipPath id="SVGID_14_">
			<use xlink:href="#SVGID_13_"  overflow="visible"/>
		</clipPath>
		<path clip-path="url(#SVGID_14_)" fill="#ED9C00" d="M227.157,80.68l-16.7,3.836c1.173,5.123,3.186,9.932,5.883,14.272
			l14.82-9.187C229.366,86.905,227.999,83.899,227.157,80.68"/>
	</g>
	<g>
		<defs>
			<rect id="SVGID_15_" x="0" y="0" width="330.254" height="225.949"/>
		</defs>
		<clipPath id="SVGID_16_">
			<use xlink:href="#SVGID_15_"  overflow="visible"/>
		</clipPath>
		<path clip-path="url(#SVGID_16_)" fill="#D0380D" d="M231.16,89.602l-14.82,9.188c2.188,3.52,4.824,6.734,7.835,9.557
			c-8.091,2.523-16.258,3.694-16.258,3.694c0.335,0.321,9.544,6.577,24,9.569l11.111-21.646
			C238.204,97.628,234.106,94.032,231.16,89.602"/>
	</g>
	<g>
		<defs>
			<rect id="SVGID_17_" x="0" y="0" width="330.254" height="225.949"/>
		</defs>
		<clipPath id="SVGID_18_">
			<use xlink:href="#SVGID_17_"  overflow="visible"/>
		</clipPath>
		<path clip-path="url(#SVGID_18_)" fill="#DD6826" d="M256.008,102.93c-4.651,0-9.056-1.064-12.979-2.966l-11.112,21.646
			c7.045,1.459,15.335,2.145,24.452,0.988v-19.672C256.249,102.928,256.129,102.93,256.008,102.93"/>
	</g>
	<g>
		<defs>
			<rect id="SVGID_19_" x="0" y="0" width="330.254" height="225.949"/>
		</defs>
		<clipPath id="SVGID_20_">
			<use xlink:href="#SVGID_19_"  overflow="visible"/>
		</clipPath>
		<path clip-path="url(#SVGID_20_)" fill="#94BE1C" d="M256.369,102.927v19.672c4.266-0.539,8.713-1.482,13.297-2.937l-0.007-0.031
			c4.067-1.198,7.909-2.957,11.442-5.18l-9.665-15.818C267.031,101.303,261.88,102.86,256.369,102.927"/>
	</g>
	<g>
		<defs>
			<rect id="SVGID_21_" x="0" y="0" width="330.254" height="225.949"/>
		</defs>
		<clipPath id="SVGID_22_">
			<use xlink:href="#SVGID_21_"  overflow="visible"/>
		</clipPath>
		<path clip-path="url(#SVGID_22_)" fill="#CAD229" d="M285.831,73.107c0,10.824-5.766,20.301-14.395,25.524l9.666,15.819
			c6.694-4.213,12.277-10.102,16.189-17.055l0.024-0.047c3.812-6.785,6.038-14.578,6.134-22.824
			c0.041-3.596-0.322-7.101-1.045-10.471l-17.06,3.678C285.664,69.477,285.831,71.273,285.831,73.107"/>
	</g>
	<g>
		<defs>
			<rect id="SVGID_23_" x="0" y="0" width="330.254" height="225.949"/>
		</defs>
		<clipPath id="SVGID_24_">
			<use xlink:href="#SVGID_23_"  overflow="visible"/>
		</clipPath>
		<path clip-path="url(#SVGID_24_)" fill="#E7DF09" d="M256.922,26.883c-8.063-0.094-15.674,1.845-22.35,5.337l7.562,14.483
			c4.146-2.181,8.864-3.42,13.874-3.42c14.637,0,26.809,10.543,29.34,24.45l17.06-3.678
			C297.896,43.024,279.336,27.143,256.922,26.883"/>
	</g>
	<g>
		<defs>
			<rect id="SVGID_25_" x="0" y="0" width="330.254" height="225.949"/>
		</defs>
		<clipPath id="SVGID_26_">
			<use xlink:href="#SVGID_25_"  overflow="visible"/>
		</clipPath>
		<path clip-path="url(#SVGID_26_)" fill="#68B03D" d="M254.746,71.004l-8.563-12.834h-14.638l20.692,31.892l12.004-0.036
			c6.575-32.039,14.663-47.968,40.898-59.576C281.068,31.19,261.518,48.998,254.746,71.004"/>
	</g>
</g>
</svg>
